Coordinates
version=1
nRows=10
nColumns=34
inDegrees=yes

Units are S.I. units (second, meters, Newtons, ...)
If the header above contains a line with 'inDegrees', this indicates whether rotational values are in degrees (yes) or radians (no).

endheader
time	pelvis_tilt	pelvis_list	pelvis_rotation	pelvis_tx	pelvis_ty	pelvis_tz	hip_flexion_r	hip_adduction_r	hip_rotation_r	knee_angle_r	ankle_angle_r	subtalar_angle_r	mtp_angle_r	hip_flexion_l	hip_adduction_l	hip_rotation_l	knee_angle_l	ankle_angle_l	subtalar_angle_l	mtp_angle_l	lumbar_extension	lumbar_bending	lumbar_rotation	arm_flex_r	arm_add_r	arm_rot_r	elbow_flex_r	pro_sup_r	arm_flex_l	arm_add_l	arm_rot_l	elbow_flex_l	pro_sup_l
      2.33333330	     -1.80823990	      1.81908505	     -1.04287370	      1.81100723	      0.88266934	     -0.16052269	     -1.71861983	     -7.16073301	      2.55095193	      0.00000000	      3.98119131	    -15.85642413	      0.00000000	     -0.70080776	     -3.02616359	     -2.59937947	      0.00000000	      3.32120878	     -3.82701409	      0.00000000	     -8.37224931	     -1.00885596	     -0.85115714	     10.93701973	     -4.66840877	     37.21900962	     75.47084901	     78.14907336	     10.97791450	     -8.20854975	     32.00960483	     61.11928515	     82.02792825
      2.35000000	     -1.79914895	      1.80325894	     -0.93639070	      1.81125611	      0.88267948	     -0.16087505	     -1.77853270	     -7.16948857	      2.56153726	      0.00000000	      3.95888443	    -15.86829882	      0.00000000	     -0.69696992	     -3.02183990	     -2.61503050	      0.00000000	      3.32792237	     -3.84392149	      0.00000000	     -8.31576092	     -1.00561657	     -0.84958937	     10.94217582	     -4.67689049	     37.21817300	     75.55555406	     78.14531497	     10.95173036	     -8.22114179	     32.00395195	     61.17051525	     82.02550365
      2.36666670	     -1.80817777	      1.77957542	     -0.94021744	      1.81152019	      0.88306123	     -0.16136145	     -1.78584427	     -7.18370753	      2.56143545	      0.00000000	      3.95651005	    -15.86992345	      0.00000000	     -0.69965852	     -3.01964752	     -2.61273549	      0.00000000	      3.32787327	     -3.84377035	      0.00000000	     -8.31168616	     -1.00859737	     -0.85354048	     10.94102278	     -4.67749608	     37.21836994	     75.56392190	     78.14497710	     10.95265079	     -8.22223302	     32.00311161	     61.17580347	     82.02522133
      2.38333330	     -1.82071651	      1.75791118	     -0.94182860	      1.81205650	      0.88285939	     -0.16194133	     -1.80464386	     -7.20409075	      2.56455047	      0.00000000	      3.95184220	    -15.86956133	      0.00000000	     -0.70067731	     -3.02311849	     -2.61001256	      0.00000000	      3.32751795	     -3.84374081	      0.00000000	     -8.30308878	     -1.01229462	     -0.85897775	     10.94062363	     -4.67782231	     37.21856931	     75.57565118	     78.14459111	     10.95527860	     -8.22317909	     32.00185218	     61.18313940	     82.02483092
      2.40000000	     -1.79558309	      1.75898629	     -0.87019255	      1.81277513	      0.88295920	     -0.16263730	     -1.92004506	     -7.26128072	      2.64624894	      0.00000000	      3.88139672	    -15.83161175	      0.00000000	     -0.73817009	     -3.00142279	     -2.56572595	      0.00000000	      3.31961139	     -3.84129275	      0.00000000	     -8.11919839	     -1.03911671	     -0.94927102	     10.91672811	     -4.68737088	     37.22616610	     75.74929780	     78.13994609	     10.98110540	     -8.22151843	     31.99042717	     61.29048200	     82.01946123
      2.41666670	     -1.82155322	      1.73294589	     -0.88824817	      1.81353801	      0.88291750	     -0.16328597	     -1.94642637	     -7.29877994	      2.64696800	      0.00000000	      3.87891007	    -15.83140573	      0.00000000	     -0.72997288	     -3.01523355	     -2.56056911	      0.00000000	      3.31826509	     -3.84020314	      0.00000000	     -8.12171172	     -1.04550215	     -0.95254304	     10.91379778	     -4.68654403	     37.22755011	     75.75952639	     78.13960548	     10.97948145	     -8.22664671	     31.98948410	     61.29452602	     82.01896829
      2.43333330	     -1.84610089	      1.70862982	     -0.90614439	      1.81398211	      0.88398620	     -0.16387269	     -1.97249683	     -7.33395853	      2.64890464	      0.00000000	      3.87707018	    -15.82991420	      0.00000000	     -0.72368727	     -3.02321640	     -2.55637816	      0.00000000	      3.31674742	     -3.83939759	      0.00000000	     -8.11791069	     -1.05144129	     -0.95551173	     10.91011479	     -4.68430080	     37.22939424	     75.76884510	     78.13940734	     10.97839784	     -8.23105061	     31.98851966	     61.29818895	     82.01854075
      2.45000000	     -1.86942713	      1.68605231	     -0.92420083	      1.81436783	      0.88378819	     -0.16433684	     -1.99856619	     -7.36760141	      2.65207776	      0.00000000	      3.87450504	    -15.82656518	      0.00000000	     -0.72447932	     -3.02494314	     -2.55246275	      0.00000000	      3.31437658	     -3.83850611	      0.00000000	     -8.11149392	     -1.05666183	     -0.95921062	     10.90510581	     -4.68202838	     37.23155136	     75.77804386	     78.13925666	     10.97728504	     -8.23516233	     31.98756023	     61.30175745	     82.01811278
      2.46666670	     -1.89087233	      1.66161951	     -0.94705735	      1.81471085	      0.88352491	     -0.16472709	     -2.02410332	     -7.40218888	      2.65770831	      0.00000000	      3.87048047	    -15.82026252	      0.00000000	     -0.73081643	     -3.01495200	     -2.54743292	      0.00000000	      3.31087900	     -3.83733899	      0.00000000	     -8.09937517	     -1.06177184	     -0.96525219	     10.89680229	     -4.68011395	     37.23451612	     75.78964864	     78.13910522	     10.97524280	     -8.23960054	     31.98660216	     61.30642821	     82.01758901
      2.48333330	     -2.13860867	      1.90797846	     -1.13511919	      1.81540047	      0.88325952	     -0.16510521	     -1.76872617	     -7.74460986	      2.81649928	      0.00000000	      4.00180244	    -15.26579062	      0.00000000	     -0.55144820	     -2.69100514	     -2.49855711	      0.00000000	      3.04594159	     -4.13131354	      0.00000000	     -7.74422240	     -1.36090485	     -1.02360839	     10.36897795	     -5.01239188	     37.45909974	     77.52369219	     78.04018981	     10.38815230	     -8.54016924	     31.72873732	     62.40960363	     81.85853519
